<svg width="112" height="112" viewBox="0 0 112 112" fill="none" xmlns="http://www.w3.org/2000/svg">
<g clip-path="url(#clip0_21_12568)">
<path d="M22 0V112" stroke="#0B17B4"/>
<path d="M24 0L24 112" stroke="#0B17B4"/>
<path d="M26 0V112" stroke="#0B17B4"/>
<path d="M28 0V112" stroke="#0B17B4"/>
<path d="M30 0V112" stroke="#0B17B4"/>
<path d="M10 0V112" stroke="#0B17B4"/>
<path d="M12 0L12 112" stroke="#0B17B4"/>
<path d="M14 0V112" stroke="#0B17B4"/>
<path d="M16 0V112" stroke="#0B17B4"/>
<path d="M18 0V112" stroke="#0B17B4"/>
<path d="M20 0V112" stroke="#0B17B4"/>
<path d="M44 0V112" stroke="#0B17B4"/>
<path d="M46 0L46 112" stroke="#0B17B4"/>
<path d="M48 0V112" stroke="#0B17B4"/>
<path d="M50 0V112" stroke="#0B17B4"/>
<path d="M52 0V112" stroke="#0B17B4"/>
<path d="M32 0V112" stroke="#0B17B4"/>
<path d="M34 0L34 112" stroke="#0B17B4"/>
<path d="M36 0V112" stroke="#0B17B4"/>
<path d="M38 0V112" stroke="#0B17B4"/>
<path d="M40 0V112" stroke="#0B17B4"/>
<path d="M42 0V112" stroke="#0B17B4"/>
<path d="M66 0V112" stroke="#0B17B4"/>
<path d="M68 0L68 112" stroke="#0B17B4"/>
<path d="M70 0V112" stroke="#0B17B4"/>
<path d="M72 0V112" stroke="#0B17B4"/>
<path d="M74 0V112" stroke="#0B17B4"/>
<path d="M54 0V112" stroke="#0B17B4"/>
<path d="M56 0L56 112" stroke="#0B17B4"/>
<path d="M58 0V112" stroke="#0B17B4"/>
<path d="M60 0V112" stroke="#0B17B4"/>
<path d="M62 0V112" stroke="#0B17B4"/>
<path d="M64 0V112" stroke="#0B17B4"/>
<path d="M88 0V112" stroke="#0B17B4"/>
<path d="M90 0L90 112" stroke="#0B17B4"/>
<path d="M92 0V112" stroke="#0B17B4"/>
<path d="M94 0V112" stroke="#0B17B4"/>
<path d="M96 0V112" stroke="#0B17B4"/>
<path d="M98 0L98 112" stroke="#0B17B4"/>
<path d="M100 0V112" stroke="#0B17B4"/>
<path d="M102 0V112" stroke="#0B17B4"/>
<path d="M104 0V112" stroke="#0B17B4"/>
<path d="M106 0L106 112" stroke="#0B17B4"/>
<path d="M108 0V112" stroke="#0B17B4"/>
<path d="M110 0V112" stroke="#0B17B4"/>
<path d="M2 0L2 112" stroke="#0B17B4"/>
<path d="M0 0L-8.51569e-09 112" stroke="#0B17B4"/>
<path d="M4 0V112" stroke="#0B17B4"/>
<path d="M6 0V112" stroke="#0B17B4"/>
<path d="M8 0V112" stroke="#0B17B4"/>
<path d="M76 0V112" stroke="#0B17B4"/>
<path d="M78 0L78 112" stroke="#0B17B4"/>
<path d="M80 0V112" stroke="#0B17B4"/>
<path d="M82 0V112" stroke="#0B17B4"/>
<path d="M84 0V112" stroke="#0B17B4"/>
<path d="M86 0V112" stroke="#0B17B4"/>
<path d="M112 22L-7.15256e-07 22" stroke="#0B17B4"/>
<path d="M112 24L-7.15256e-07 24" stroke="#0B17B4"/>
<path d="M112 26L-7.15256e-07 26" stroke="#0B17B4"/>
<path d="M112 28L-7.15256e-07 28" stroke="#0B17B4"/>
<path d="M112 30.0001L-7.15256e-07 30.0001" stroke="#0B17B4"/>
<path d="M112 10L-7.15256e-07 10" stroke="#0B17B4"/>
<path d="M112 12L-7.15256e-07 12" stroke="#0B17B4"/>
<path d="M112 14L-7.15256e-07 14" stroke="#0B17B4"/>
<path d="M112 16.0001L-7.15256e-07 16.0001" stroke="#0B17B4"/>
<path d="M112 17.9999L-7.15256e-07 17.9999" stroke="#0B17B4"/>
<path d="M112 19.9999L-7.15256e-07 19.9999" stroke="#0B17B4"/>
<path d="M112 44.0001L-7.15256e-07 44.0001" stroke="#0B17B4"/>
<path d="M112 46.0001L-7.15256e-07 46.0001" stroke="#0B17B4"/>
<path d="M112 47.9999L-7.15256e-07 47.9999" stroke="#0B17B4"/>
<path d="M112 49.9999L-7.15256e-07 49.9999" stroke="#0B17B4"/>
<path d="M112 52L-7.15256e-07 52" stroke="#0B17B4"/>
<path d="M112 31.9999L-7.15256e-07 31.9999" stroke="#0B17B4"/>
<path d="M112 33.9999L-7.15256e-07 33.9999" stroke="#0B17B4"/>
<path d="M112 36L-7.15256e-07 36" stroke="#0B17B4"/>
<path d="M112 38L-7.15256e-07 38" stroke="#0B17B4"/>
<path d="M112 40L-7.15256e-07 40" stroke="#0B17B4"/>
<path d="M112 42L-7.15256e-07 42" stroke="#0B17B4"/>
<path d="M112 66L-7.15256e-07 66" stroke="#0B17B4"/>
<path d="M112 68L-7.15256e-07 68" stroke="#0B17B4"/>
<path d="M112 70L-7.15256e-07 70" stroke="#0B17B4"/>
<path d="M112 72L-7.15256e-07 72" stroke="#0B17B4"/>
<path d="M112 74.0001L-7.15256e-07 74.0001" stroke="#0B17B4"/>
<path d="M112 54L-7.15256e-07 54" stroke="#0B17B4"/>
<path d="M112 56L-7.15256e-07 56" stroke="#0B17B4"/>
<path d="M112 58L-7.15256e-07 58" stroke="#0B17B4"/>
<path d="M112 60.0001L-7.15256e-07 60.0001" stroke="#0B17B4"/>
<path d="M112 61.9999L-7.15256e-07 61.9999" stroke="#0B17B4"/>
<path d="M112 63.9999L-7.15256e-07 63.9999" stroke="#0B17B4"/>
<path d="M112 88L-7.15256e-07 88" stroke="#0B17B4"/>
<path d="M112 90.0001L-7.15256e-07 90.0001" stroke="#0B17B4"/>
<path d="M112 91.9999L-7.15256e-07 91.9999" stroke="#0B17B4"/>
<path d="M112 93.9999L-7.15256e-07 93.9999" stroke="#0B17B4"/>
<path d="M112 96L-7.15256e-07 96" stroke="#0B17B4"/>
<path d="M112 98L-7.15256e-07 98" stroke="#0B17B4"/>
<path d="M112 100L-7.15256e-07 100" stroke="#0B17B4"/>
<path d="M112 102L-7.15256e-07 102" stroke="#0B17B4"/>
<path d="M112 104L-7.15256e-07 104" stroke="#0B17B4"/>
<path d="M112 106L-7.15256e-07 106" stroke="#0B17B4"/>
<path d="M112 108L-7.15256e-07 108" stroke="#0B17B4"/>
<path d="M112 110L-7.15256e-07 110" stroke="#0B17B4"/>
<path d="M112 112L-7.15256e-07 112" stroke="#0B17B4"/>
<path d="M112 2.00012L-7.15256e-07 2.00012" stroke="#0B17B4"/>
<path d="M112 3.99988L-7.15256e-07 3.99988" stroke="#0B17B4"/>
<path d="M112 5.99988L-7.15256e-07 5.99988" stroke="#0B17B4"/>
<path d="M112 8L-7.15256e-07 8" stroke="#0B17B4"/>
<path d="M112 76.0001L-7.15256e-07 76.0001" stroke="#0B17B4"/>
<path d="M112 77.9999L-7.15256e-07 77.9999" stroke="#0B17B4"/>
<path d="M112 79.9999L-7.15256e-07 79.9999" stroke="#0B17B4"/>
<path d="M112 82L-7.15256e-07 82" stroke="#0B17B4"/>
<path d="M112 84L-7.15256e-07 84" stroke="#0B17B4"/>
<path d="M112 86L-7.15256e-07 86" stroke="#0B17B4"/>
</g>
<defs>
<clipPath id="clip0_21_12568">
<rect width="112" height="112" fill="white"/>
</clipPath>
</defs>
</svg>
