<svg width="220" height="220" viewBox="0 0 220 220" xmlns="http://www.w3.org/2000/svg">


  <!-- نطبّق clipPath على المجموعة -->
    <g transform="translate(0,220) scale(0.1,-0.1)" fill="#000000" stroke="none">
  <path d="M0 1100 l0 -1100 1100 0 1100 0 0 1100 0 1100 -1100 0 -1100 0 0
    -1100z m845 301 c26 -21 52 -49 82 -88 14 -18 29 -31 33 -28 5 3 11 28 15 56
    5 38 11 49 22 47 39 -8 40 -39 7 -163 -3 -12 11 -55 35 -107 22 -48 45 -105
    52 -127 7 -23 15 -41 18 -41 3 0 35 47 71 103 36 56 99 148 140 204 41 56 84
    117 95 135 26 41 42 44 85 16 38 -26 41 -41 10 -46 -45 -7 -118 -187 -145
    -360 -6 -35 -4 -41 8 -36 26 10 27 -10 3 -97 -25 -91 -37 -102 -80 -73 -38 24
    -37 44 13 284 11 52 19 96 17 98 -6 5 -80 -105 -143 -212 -39 -66 -51 -95 -47
    -115 6 -29 -27 -81 -51 -81 -23 0 -47 49 -40 80 5 21 -5 57 -35 132 -23 57
    -45 107 -49 111 -4 4 -27 -37 -50 -92 -36 -84 -41 -102 -30 -119 16 -25 5 -52
    -21 -52 -12 0 -35 -14 -52 -30 -16 -16 -33 -30 -37 -30 -13 0 -61 40 -61 51 0
    5 20 23 44 40 37 26 52 49 100 148 73 153 75 164 36 223 -38 57 -94 108 -118
    108 -10 0 -31 -13 -47 -30 -59 -61 -76 -20 -22 52 52 68 93 80 142 39z" />
    </g>
</svg>